<svg width="48" height="48" viewBox="0 0 48 48" fill="none" xmlns="http://www.w3.org/2000/svg">
  <!-- Cloud -->
  <path d="M24 20C22.5 20 21 20.5 20 21.5C19 22.5 18.5 24 18.5 25.5C18.5 27 19 28.5 20 29.5C21 30.5 22.5 31 24 31C25.5 31 27 30.5 28 29.5C29 28.5 29.5 27 29.5 25.5C29.5 24 29 22.5 28 21.5C27 20.5 25.5 20 24 20Z" fill="white"/>
  
  <!-- Additional cloud part -->
  <path d="M32 24C31 24 30 24.5 29.5 25.5C29 26.5 29 27.5 29 28.5C29 29.5 29.5 30.5 30 31.5C30.5 32.5 31.5 33 32.5 33C33.5 33 34.5 32.5 35 31.5C35.5 30.5 36 29.5 36 28.5C36 27.5 35.5 26.5 35 25.5C34.5 24.5 33.5 24 32 24Z" fill="white"/>
</svg>
