<svg width="48" height="48" viewBox="0 0 48 48" fill="none" xmlns="http://www.w3.org/2000/svg">
  <!-- Water droplet shape with asymmetrical curves -->
  <path d="M24 6C24 6 30 12 30 18C30 22 28 26 26 28C26 30 26 32 26 34C26 36 25 37 24 38C23 37 22 36 22 34C22 32 22 30 22 28C20 26 18 22 18 18C18 12 24 6 24 6Z" fill="white"/>
  <!-- Subtle curved highlight line in lower-left portion -->
  <path d="M21 30C21 30 21.5 29 22.5 29.5C23.5 30 24 29.5 24 29.5" stroke="rgba(255,255,255,0.4)" stroke-width="1" stroke-linecap="round" fill="none"/>
</svg>
