<svg width="48" height="48" viewBox="0 0 48 48" fill="none" xmlns="http://www.w3.org/2000/svg">
  <!-- Sun with rays -->
  <circle cx="32" cy="16" r="6" fill="white"/>
  <path d="M32 6C32 6 32 4 32 4" stroke="white" stroke-width="2" stroke-linecap="round"/>
  <path d="M32 26C32 26 32 28 32 28" stroke="white" stroke-width="2" stroke-linecap="round"/>
  <path d="M42 16C42 16 44 16 44 16" stroke="white" stroke-width="2" stroke-linecap="round"/>
  <path d="M22 16C22 16 20 16 20 16" stroke="white" stroke-width="2" stroke-linecap="round"/>
  <path d="M38.828 10.828C38.828 10.828 40.242 9.414 40.242 9.414" stroke="white" stroke-width="2" stroke-linecap="round"/>
  <path d="M25.172 23.172C25.172 23.172 26.586 24.586 26.586 24.586" stroke="white" stroke-width="2" stroke-linecap="round"/>
  <path d="M38.828 21.172C38.828 21.172 40.242 22.586 40.242 22.586" stroke="white" stroke-width="2" stroke-linecap="round"/>
  <path d="M25.172 10.828C25.172 10.828 26.586 9.414 26.586 9.414" stroke="white" stroke-width="2" stroke-linecap="round"/>
  
  <!-- Cloud -->
  <path d="M20 28C18.5 28 17 28.5 16 29.5C15 30.5 14.5 32 14.5 33.5C14.5 35 15 36.5 16 37.5C17 38.5 18.5 39 20 39C21.5 39 23 38.5 24 37.5C25 36.5 25.5 35 25.5 33.5C25.5 32 25 30.5 24 29.5C23 28.5 21.5 28 20 28Z" fill="white"/>
</svg>
