<svg width="48" height="48" viewBox="0 0 48 48" fill="none" xmlns="http://www.w3.org/2000/svg">
  <!-- Cloud -->
  <path d="M24 18C22.5 18 21 18.5 20 19.5C19 20.5 18.5 22 18.5 23.5C18.5 25 19 26.5 20 27.5C21 28.5 22.5 29 24 29C25.5 29 27 28.5 28 27.5C29 26.5 29.5 25 29.5 23.5C29.5 22 29 20.5 28 19.5C27 18.5 25.5 18 24 18Z" fill="white"/>
  
  <!-- Raindrops -->
  <path d="M20 34C20 34 20 38 20 38" stroke="white" stroke-width="2" stroke-linecap="round"/>
  <path d="M24 32C24 32 24 36 24 36" stroke="white" stroke-width="2" stroke-linecap="round"/>
  <path d="M28 35C28 35 28 39 28 39" stroke="white" stroke-width="2" stroke-linecap="round"/>
</svg>
