<svg width="48" height="48" viewBox="0 0 48 48" fill="none" xmlns="http://www.w3.org/2000/svg">
  <!-- Central circle -->
  <circle cx="24" cy="24" r="8" fill="white"/>
  
  <!-- Eight rounded rays -->
  <path d="M24 2C25.1046 2 26 2.89543 26 4V6C26 7.10457 25.1046 8 24 8C22.8954 8 22 7.10457 22 6V4C22 2.89543 22.8954 2 24 2Z" fill="white"/>
  <path d="M24 40C25.1046 40 26 40.8954 26 42V44C26 45.1046 25.1046 46 24 46C22.8954 46 22 45.1046 22 44V42C22 40.8954 22.8954 40 24 40Z" fill="white"/>
  <path d="M2 24C2 22.8954 2.89543 22 4 22H6C7.10457 22 8 22.8954 8 24C8 25.1046 7.10457 26 6 26H4C2.89543 26 2 25.1046 2 24Z" fill="white"/>
  <path d="M40 24C40 22.8954 40.8954 22 42 22H44C45.1046 22 46 22.8954 46 24C46 25.1046 45.1046 26 44 26H42C40.8954 26 40 25.1046 40 24Z" fill="white"/>
  
  <!-- Diagonal rays with rounded ends -->
  <path d="M8.82843 8.82843C9.60948 8.04738 10.8954 8.04738 11.6765 8.82843L13.2929 10.4448C14.0739 11.2259 14.0739 12.5118 13.2929 13.2929C12.5118 14.0739 11.2259 14.0739 10.4448 13.2929L8.82843 11.6765C8.04738 10.8954 8.04738 9.60948 8.82843 8.82843Z" fill="white"/>
  <path d="M39.1716 39.1716C38.3905 39.9526 37.1046 39.9526 36.3235 39.1716L34.7071 37.5552C33.9261 36.7741 33.9261 35.4882 34.7071 34.7071C35.4882 33.9261 36.7741 33.9261 37.5552 34.7071L39.1716 36.3235C39.9526 37.1046 39.9526 38.3905 39.1716 39.1716Z" fill="white"/>
  <path d="M39.1716 8.82843C38.3905 8.04738 37.1046 8.04738 36.3235 8.82843L34.7071 10.4448C33.9261 11.2259 33.9261 12.5118 34.7071 13.2929C35.4882 14.0739 36.7741 14.0739 37.5552 13.2929L39.1716 11.6765C39.9526 10.8954 39.9526 9.60948 39.1716 8.82843Z" fill="white"/>
  <path d="M8.82843 39.1716C9.60948 39.9526 10.8954 39.9526 11.6765 39.1716L13.2929 37.5552C14.0739 36.7741 14.0739 35.4882 13.2929 34.7071C12.5118 33.9261 11.2259 33.9261 10.4448 34.7071L8.82843 36.3235C8.04738 37.1046 8.04738 38.3905 8.82843 39.1716Z" fill="white"/>
</svg>
